<svg width="385" height="333" viewBox="0 0 385 333" fill="none" xmlns="http://www.w3.org/2000/svg">
<path d="M65.88 132L92 220.13C92.5645 222.037 93.7301 223.711 95.323 224.902C96.9159 226.093 98.851 226.738 100.84 226.74L206.84 227.03C208.173 227.033 209.493 226.765 210.719 226.241C211.945 225.717 213.051 224.948 213.97 223.982C214.889 223.017 215.601 221.874 216.064 220.623C216.526 219.373 216.729 218.041 216.66 216.71C216.524 214.205 215.434 211.846 213.613 210.12C211.792 208.394 209.379 207.431 206.87 207.43H166.34L133.88 117H77.06C75.2425 116.999 73.4498 117.422 71.8251 118.237C70.2004 119.051 68.7886 120.235 67.7024 121.692C66.6163 123.149 65.8859 124.84 65.5694 126.63C65.253 128.42 65.3593 130.259 65.88 132V132Z" fill="#455A64"/>
<path d="M155.56 214.67C155.56 214.88 144.75 215.04 131.42 215.04C118.09 215.04 107.29 214.88 107.29 214.67C107.29 214.46 118.09 214.3 131.42 214.3C144.75 214.3 155.56 214.46 155.56 214.67Z" fill="#263238"/>
<path d="M73.68 119.78C73.87 119.72 81.09 140.83 89.8 166.94C98.51 193.05 105.4 214.27 105.21 214.33C105.02 214.39 97.8 193.33 89.09 167.17C80.38 141.01 73.48 119.85 73.68 119.78Z" fill="#263238"/>
<path d="M151.15 305.09L144.69 304.94V226.74H151.15V305.09Z" fill="#455A64"/>
<path d="M117.86 304.73H177.99L150.75 295.26H144.29L117.86 304.73Z" fill="#455A64"/>
<path d="M102.65 96.76L112.6 146.47L110.82 183.72L177.7 172.6L175.08 140L175 113L191.4 144.78L204.16 120.11L180.79 77.76C176.535 73.313 171.299 69.9227 165.5 67.86C162.419 66.7499 159.183 66.129 155.91 66.02V66.02C148.378 68.4047 140.292 68.4047 132.76 66.02C131.82 66.14 130.52 66.27 128.87 66.46H128.57C121.691 67.3324 115.338 70.5944 110.62 75.6759C105.902 80.7575 103.12 87.3354 102.76 94.26L102.65 96.76Z" fill="#61DCFB"/>
<path d="M128.89 66.47C128.89 66.47 101.41 66.68 98.01 95.7L97.55 117L121.21 116.8L128.89 66.47Z" fill="#61DCFB"/>
<path d="M194.54 103.8C194.54 104.01 172.92 104.18 146.25 104.18C119.58 104.18 98 104 98 103.8C98 103.6 119.61 103.43 146.29 103.43C172.97 103.43 194.54 103.6 194.54 103.8Z" fill="#FAFAFA"/>
<path d="M194.54 108.41C194.54 108.61 172.92 108.78 146.25 108.78C119.58 108.78 97.96 108.61 97.96 108.41C97.96 108.21 119.57 108.03 146.25 108.03C172.93 108.03 194.54 108.2 194.54 108.41Z" fill="#FAFAFA"/>
<path d="M193 100C193 100.21 171.73 100.38 145.49 100.38C119.25 100.38 98 100.2 98 100C98 99.8 119.27 99.63 145.52 99.63C171.77 99.63 193 99.79 193 100Z" fill="#FAFAFA"/>
<path d="M174.67 144.77C174.46 144.77 174.55 133 174.87 118.5C175.19 104 175.62 92.24 175.82 92.24C176.02 92.24 175.94 104.01 175.62 118.51C175.3 133.01 174.87 144.77 174.67 144.77Z" fill="#263238"/>
<path d="M165.27 125.69C165.27 125.69 178.27 126.62 180.61 130.06C182.95 133.5 186.52 143.29 185.17 143.36C184.33 143.391 183.504 143.134 182.83 142.63L179.27 136.31C179.27 136.31 179.84 142.41 177.71 142.53C175.58 142.65 165 144.77 165 144.77L165.27 125.69Z" fill="#FFBE9D"/>
<path d="M97.56 111.32L97.5099 144.83C97.6097 146.671 98.108 148.468 98.9706 150.098C99.8332 151.727 101.039 153.15 102.506 154.267C103.972 155.384 105.664 156.17 107.464 156.569C109.263 156.969 111.129 156.972 112.93 156.58L165.34 145.78L165.23 124.29L120 133L119.4 110.25L97.56 111.32Z" fill="#61DCFB"/>
<path d="M127.46 153.89C127.685 153.809 127.915 153.745 128.15 153.7L130.15 153.24L137.85 151.61L165.16 146L164.89 146.32C164.89 139.58 164.89 132.12 164.89 124.25L165.33 124.62L156.11 126.39L120.11 133.24L119.72 133.32V133C120.06 123 120.35 114.72 120.55 108.84C120.67 105.98 120.76 103.71 120.83 102.09C120.83 101.36 120.9 100.77 120.93 100.32C120.93 100.115 120.954 99.91 121 99.71C121.013 99.9132 121.013 100.117 121 100.32C121 100.78 121 101.32 121 102.1C121 103.72 120.94 105.99 120.9 108.85C120.76 114.74 120.57 123.04 120.34 133.01L119.96 132.7L155.96 125.7L165.18 123.94L165.62 123.85V124.3C165.62 132.17 165.62 139.63 165.62 146.37V146.65L165.35 146.7L138 152L130.26 153.45L128.21 153.81C127.964 153.864 127.712 153.891 127.46 153.89V153.89Z" fill="#263238"/>
<path d="M157.52 66.47C157.52 66.47 157.62 66.63 157.73 66.96C157.904 67.4423 158.041 67.937 158.14 68.44C158.503 70.3134 158.417 72.2461 157.89 74.08C157.078 76.8 155.502 79.2296 153.35 81.08C150.73 83.4284 147.328 84.7155 143.81 84.69C142.061 84.7187 140.325 84.3943 138.705 83.7362C137.084 83.0782 135.613 82.0999 134.38 80.86C132.421 78.7752 131.19 76.1126 130.87 73.27C130.635 71.3742 130.861 69.4496 131.53 67.66C131.707 67.179 131.931 66.7167 132.2 66.28C132.38 65.98 132.48 65.83 132.51 65.84C132.54 65.85 132.19 66.51 131.8 67.76C131.269 69.5219 131.129 71.3784 131.39 73.2C131.769 75.899 132.986 78.4106 134.87 80.38C136.048 81.5383 137.446 82.4497 138.981 83.061C140.516 83.6723 142.158 83.9711 143.81 83.94C147.147 83.9671 150.378 82.7679 152.89 80.57C154.982 78.8137 156.541 76.5066 157.39 73.91C157.937 72.1517 158.094 70.2952 157.85 68.47C157.68 67.19 157.44 66.49 157.52 66.47Z" fill="#263238"/>
<path d="M160.05 147.56C159.934 146.46 159.934 145.35 160.05 144.25C160.13 142.25 160.23 139.41 160.25 136.31C160.27 133.21 160.25 130.4 160.14 128.36C160.027 127.26 160.027 126.15 160.14 125.05C160.444 126.118 160.612 127.22 160.64 128.33C160.83 130.33 160.98 133.19 160.96 136.33C160.94 139.47 160.76 142.27 160.55 144.33C160.514 145.423 160.346 146.507 160.05 147.56Z" fill="#FAFAFA"/>
<path d="M157.34 148.11C157.2 147.019 157.169 145.917 157.25 144.82C157.25 142.51 157.3 139.82 157.33 136.93V129C157.253 127.906 157.294 126.806 157.45 125.72C157.721 126.786 157.858 127.881 157.86 128.98C157.99 130.98 158.1 133.81 158.08 136.9C158.06 139.99 157.94 142.79 157.78 144.82C157.768 145.931 157.621 147.035 157.34 148.11V148.11Z" fill="#FAFAFA"/>
<path d="M209.83 281.25L219.73 308.53L233.79 327.84C234.026 328.171 234.192 328.547 234.279 328.945C234.365 329.343 234.369 329.754 234.292 330.153C234.214 330.553 234.056 330.932 233.827 331.268C233.598 331.605 233.303 331.891 232.96 332.11V332.11C232.558 332.359 232.104 332.51 231.633 332.55C231.162 332.59 230.688 332.518 230.25 332.34C224.58 329.99 203.78 321.23 203.16 319.2C202.45 316.84 189.02 287.5 189.02 287.5L209.83 281.25Z" fill="#61DCFB"/>
<g opacity="0.6">
<path d="M233 332.11L202.49 317.37L202.94 318.52C203.318 319.502 204.025 320.322 204.94 320.84C207.44 322.19 214.44 325.76 230.17 332.37C230.621 332.557 231.111 332.631 231.597 332.586C232.083 332.54 232.551 332.377 232.96 332.11H233Z" fill="white"/>
</g>
<g opacity="0.6">
<path d="M204.61 306.49C205.036 306.603 205.406 306.87 205.648 307.239C205.89 307.608 205.987 308.054 205.92 308.49C205.822 308.926 205.558 309.306 205.186 309.552C204.813 309.798 204.359 309.891 203.92 309.81C203.465 309.689 203.071 309.403 202.816 309.007C202.56 308.611 202.462 308.135 202.54 307.67C202.691 307.232 203.005 306.869 203.417 306.657C203.828 306.445 204.306 306.399 204.75 306.53" fill="white"/>
</g>
<path d="M222.18 322.7C222.504 321.61 223.033 320.591 223.74 319.7C225.01 318.28 226.65 318.07 226.62 317.89C226.59 317.71 226.19 317.74 225.52 317.89C224.654 318.126 223.872 318.603 223.265 319.265C222.658 319.927 222.251 320.747 222.09 321.63C222 322.29 222.11 322.7 222.18 322.7Z" fill="#263238"/>
<path d="M225.52 325.57C225.69 325.64 226.22 324.42 227.46 323.47C228.267 322.963 229.105 322.509 229.97 322.11C229.97 321.94 228.47 321.87 227.07 322.97C225.67 324.07 225.35 325.55 225.52 325.57Z" fill="#263238"/>
<path d="M216.79 319.45C216.97 319.53 217.79 317.66 219.57 316.02C221.35 314.38 223.28 313.7 223.22 313.52C223.16 313.34 221.05 313.76 219.14 315.52C217.23 317.28 216.63 319.43 216.79 319.45Z" fill="#263238"/>
<path d="M213.09 311.41C213.22 311.55 214.47 310.34 216.39 309.51C218.31 308.68 220.03 308.51 220.02 308.36C220.01 308.21 218.18 308.02 216.13 308.93C214.08 309.84 213 311.32 213.09 311.41Z" fill="#263238"/>
<path d="M210 303.48C210.14 303.6 211.29 302.12 213.38 301.41C215.47 300.7 217.28 301.1 217.32 300.92C217.36 300.74 216.91 300.62 216.15 300.5C215.147 300.37 214.128 300.476 213.173 300.809C212.218 301.143 211.354 301.694 210.65 302.42C210.11 303 209.91 303.43 210 303.48Z" fill="#263238"/>
<path d="M212.73 299.92C212.675 299.565 212.55 299.225 212.36 298.92C211.906 298.018 211.277 297.216 210.51 296.56C209.993 296.02 209.31 295.668 208.57 295.56C208.324 295.549 208.081 295.615 207.873 295.747C207.666 295.88 207.504 296.073 207.41 296.3C207.24 296.744 207.24 297.236 207.41 297.68C207.821 298.581 208.537 299.308 209.431 299.733C210.326 300.157 211.342 300.252 212.3 300C213.232 299.744 214.066 299.217 214.697 298.485C215.327 297.753 215.725 296.849 215.84 295.89C215.868 295.649 215.844 295.405 215.77 295.173C215.696 294.942 215.573 294.73 215.41 294.55C215.224 294.387 214.993 294.287 214.747 294.262C214.502 294.237 214.255 294.288 214.04 294.41C213.433 294.816 212.943 295.375 212.62 296.03C212.126 296.905 211.788 297.859 211.62 298.85C211.537 299.212 211.537 299.588 211.62 299.95C211.919 298.657 212.412 297.416 213.08 296.27C213.385 295.714 213.821 295.24 214.35 294.89C214.465 294.818 214.601 294.785 214.737 294.798C214.872 294.811 215 294.868 215.1 294.96C215.199 295.084 215.271 295.227 215.312 295.38C215.353 295.533 215.363 295.693 215.34 295.85C215.213 296.674 214.853 297.445 214.302 298.07C213.751 298.696 213.032 299.151 212.23 299.38C211.429 299.585 210.582 299.51 209.829 299.168C209.076 298.827 208.463 298.238 208.09 297.5C207.94 297.188 207.911 296.832 208.01 296.5C208.06 296.373 208.149 296.265 208.264 296.192C208.379 296.118 208.514 296.083 208.65 296.09C209.269 296.181 209.845 296.46 210.3 296.89C211.281 297.75 212.104 298.775 212.73 299.92V299.92Z" fill="#263238"/>
<path d="M251.64 274.11L250.79 296.28C250.79 296.28 273.03 304.6 273.27 308.71L230.27 308.59L230.15 274L251.64 274.11Z" fill="#61DCFB"/>
<g opacity="0.6">
<path d="M237.48 294.38C237.067 294.506 236.714 294.779 236.489 295.147C236.264 295.516 236.182 295.955 236.26 296.38C236.369 296.804 236.638 297.17 237.012 297.399C237.385 297.628 237.832 297.704 238.26 297.61C238.698 297.475 239.072 297.183 239.308 296.79C239.544 296.397 239.627 295.93 239.54 295.48C239.378 295.056 239.059 294.711 238.65 294.516C238.24 294.32 237.771 294.29 237.34 294.43" fill="white"/>
</g>
<g opacity="0.6">
<path d="M230.23 308.59V305.14L271.59 306.52C271.59 306.52 273.5 307.36 273.28 308.71L230.23 308.59Z" fill="white"/>
</g>
<path d="M251.48 296.06C251.48 296.27 250.43 296.37 249.39 297.06C248.35 297.75 247.8 298.62 247.61 298.53C247.42 298.44 247.73 297.23 249 296.44C250.27 295.65 251.53 295.87 251.48 296.06Z" fill="#263238"/>
<path d="M256 297.94C256.05 298.15 255.14 298.5 254.42 299.39C253.7 300.28 253.5 301.22 253.29 301.21C253.08 301.2 252.95 300.01 253.86 298.92C254.77 297.83 256 297.74 256 297.94Z" fill="#263238"/>
<path d="M258.54 303.35C258.35 303.35 258.06 302.35 258.61 301.2C259.16 300.05 260.13 299.59 260.22 299.77C260.31 299.95 259.7 300.56 259.22 301.51C258.74 302.46 258.75 303.33 258.54 303.35Z" fill="#263238"/>
<path d="M251.12 291C251.03 291.19 250.07 290.9 248.88 291C247.69 291.1 246.76 291.45 246.65 291.27C246.54 291.09 247.44 290.34 248.84 290.27C250.24 290.2 251.22 290.83 251.12 291Z" fill="#263238"/>
<g opacity="0.3">
<path d="M251.47 278.5L251.32 282.45L230.17 282.2L230.15 278.64L251.47 278.5Z" fill="black"/>
</g>
<path d="M251.21 286.52C250.502 286.709 249.758 286.709 249.05 286.52C248.275 286.375 247.52 286.14 246.8 285.82C246.372 285.629 245.957 285.409 245.56 285.16C245.321 285.021 245.102 284.849 244.91 284.65C244.773 284.499 244.69 284.308 244.674 284.105C244.658 283.903 244.709 283.7 244.82 283.53C244.926 283.384 245.064 283.265 245.223 283.181C245.383 283.098 245.56 283.053 245.74 283.05C246.014 283.049 246.288 283.089 246.55 283.17C247.009 283.285 247.457 283.439 247.89 283.63C248.622 283.958 249.297 284.4 249.89 284.94C250.89 285.87 251.23 286.65 251.16 286.7C251.09 286.75 250.58 286.11 249.56 285.34C248.971 284.893 248.325 284.527 247.64 284.25C247.242 284.088 246.83 283.961 246.41 283.87C245.95 283.74 245.56 283.74 245.41 283.94C245.26 284.14 245.36 284.05 245.41 284.18C245.552 284.328 245.713 284.456 245.89 284.56C246.257 284.799 246.637 285.016 247.03 285.21C247.697 285.54 248.393 285.808 249.11 286.01C249.822 286.125 250.524 286.295 251.21 286.52Z" fill="#263238"/>
<path d="M250.93 286.82C250.533 286.198 250.337 285.468 250.37 284.73C250.338 283.932 250.44 283.135 250.67 282.37C250.815 281.921 250.999 281.486 251.22 281.07C251.34 280.789 251.53 280.544 251.772 280.356C252.013 280.169 252.298 280.047 252.6 280C252.792 280.003 252.979 280.061 253.138 280.168C253.298 280.274 253.423 280.424 253.5 280.6C253.609 280.856 253.683 281.125 253.72 281.4C253.795 281.88 253.795 282.37 253.72 282.85C253.595 283.655 253.276 284.417 252.79 285.07C251.95 286.18 251.07 286.43 251.05 286.36C251.03 286.29 251.72 285.85 252.36 284.78C252.735 284.173 252.971 283.49 253.05 282.78C253.109 282.365 253.109 281.945 253.05 281.53C252.99 281.08 252.82 280.71 252.65 280.75C252.48 280.79 252.07 281.09 251.89 281.46C251.677 281.831 251.497 282.219 251.35 282.62C251.109 283.313 250.967 284.037 250.93 284.77C250.83 286 251.05 286.78 250.93 286.82Z" fill="#263238"/>
<path d="M230.19 167.84C204.76 170.47 171.05 173.93 171.05 173.93L175.65 215.32C175.65 215.32 225.17 202.23 224.82 203.32C224.47 204.41 227.12 291.38 227.12 291.38H256.94L257.5 192.85C257.552 189.352 256.863 185.882 255.478 182.67C254.092 179.457 252.042 176.575 249.462 174.212C246.882 171.849 243.83 170.06 240.508 168.961C237.187 167.863 233.67 167.481 230.19 167.84V167.84Z" fill="#263238"/>
<path d="M110.21 184.54V197.37C110.21 206.11 120.16 215.37 128.89 215.37H135.65C140.97 215.37 149.31 211.49 153.65 208.37L156.23 206.48L187.29 302.69C187.29 302.69 222.82 296.32 222.82 295.2C222.82 294.08 198.76 216.4 187.65 180.35C183.11 165.63 167.34 157.07 152.77 162.06C152.28 162.23 151.77 162.42 151.28 162.62C135.32 169 110.21 184.54 110.21 184.54Z" fill="#263238"/>
<path d="M222.78 295.19C222.718 295.082 222.668 294.968 222.63 294.85C222.52 294.58 222.39 294.24 222.23 293.85C221.89 292.94 221.4 291.6 220.82 289.85C219.63 286.38 218 281.31 216.02 275.04C212.02 262.51 206.74 245.14 200.96 225.94C198.08 216.33 195.35 207.18 192.85 198.84C191.61 194.68 190.44 190.72 189.34 187.01C188.78 185.157 188.247 183.373 187.74 181.66C187.289 180.008 186.748 178.383 186.12 176.79C184.995 174.082 183.288 171.655 181.12 169.68C179.475 168.182 177.717 166.815 175.86 165.59C174.34 164.59 173.13 163.82 172.3 163.32L171.37 162.73C171.256 162.673 171.151 162.599 171.06 162.51C171.181 162.546 171.295 162.6 171.4 162.67L172.4 163.19C173.25 163.65 174.49 164.36 176.04 165.35C177.943 166.53 179.742 167.868 181.42 169.35C183.675 171.331 185.458 173.791 186.64 176.55C187.29 178.155 187.851 179.794 188.32 181.46C188.85 183.17 189.39 184.96 189.96 186.81L193.54 198.61C196.05 206.94 198.81 216.09 201.71 225.69C207.49 244.86 212.71 262.22 216.55 274.86L221.13 289.73L222.41 293.73C222.54 294.16 222.64 294.5 222.73 294.78C222.82 295.06 222.8 295.19 222.78 295.19Z" fill="#455A64"/>
<path d="M230.28 190.88C230.46 191 228.77 193.54 227.36 196.99C225.95 200.44 225.31 203.42 225.09 203.38C224.87 203.34 225.19 200.24 226.67 196.7C228.15 193.16 230.13 190.76 230.28 190.88Z" fill="#455A64"/>
<path d="M236 194.88C236.08 195.08 233.52 196.21 230.85 198.32C228.18 200.43 226.46 202.64 226.28 202.51C226.1 202.38 227.6 199.91 230.39 197.74C233.18 195.57 235.93 194.7 236 194.88Z" fill="#455A64"/>
<path d="M187.58 302.68C187.39 302.74 179 277 168.84 245.18C158.68 213.36 150.62 187.51 150.84 187.45C151.06 187.39 159.42 213.13 169.58 244.96C179.74 276.79 187.78 302.62 187.58 302.68Z" fill="#455A64"/>
<path d="M149.47 152.59L251.12 153.57L270.08 99.99L196.14 100.49L178.98 148.67L149.47 149.12V152.59Z" fill="#455A64"/>
<path d="M226.54 131.4C225.733 131.287 224.977 130.937 224.368 130.394C223.76 129.852 223.326 129.141 223.122 128.351C222.918 127.562 222.953 126.73 223.222 125.96C223.491 125.191 223.982 124.518 224.633 124.028C225.285 123.538 226.067 123.252 226.881 123.206C227.695 123.161 228.504 123.358 229.206 123.772C229.908 124.187 230.471 124.8 230.824 125.535C231.177 126.27 231.305 127.093 231.19 127.9C231.036 128.98 230.46 129.955 229.589 130.612C228.717 131.268 227.62 131.551 226.54 131.4Z" fill="white"/>
<path d="M141.17 7.57001C142.17 4.00001 144.82 2.25 148.31 1.06C150.067 0.475297 151.94 0.32452 153.769 0.620546C155.597 0.916572 157.327 1.65061 158.81 2.76C160.81 4.26 162.31 6.43001 164.65 7.24001C168.49 8.57001 172.99 5.7 176.65 7.42C177.763 7.92684 178.664 8.80726 179.197 9.90868C179.729 11.0101 179.859 12.2631 179.565 13.4504C179.27 14.6378 178.57 15.6847 177.584 16.4097C176.599 17.1347 175.391 17.4921 174.17 17.42C176.67 18.34 177.45 21.91 175.99 24.14C174.53 26.37 171.52 27.21 168.89 26.72C166.285 26.085 163.902 24.7503 162 22.86C160 21.08 158.24 19.06 156.12 17.44C154.063 15.699 151.455 14.7425 148.76 14.74C145.15 14.93 142.06 17.65 140.45 20.89C138.84 24.13 138.45 27.81 138.27 31.42C138.09 35.03 138.01 38.69 136.94 42.14C136.81 42.55 136.62 43 136.22 43.14C135.63 43.32 135.13 42.7 134.84 42.14C131.553 36.0294 129.497 29.3327 128.79 22.43C128.38 18.43 128.48 14.65 130.68 11.28C132.88 7.91 138.43 5.44001 141.15 7.57001" fill="#FFC100"/>
<path d="M134.2 24.3L132.35 64.76C132.04 71.64 132.99 81.82 143.89 81.82C153.35 81.1 156.14 72.26 156.43 65.82C156.56 62.82 156.68 60.24 156.72 59.93C156.72 59.93 167.06 59.43 168.27 49.27C168.85 44.36 169.27 34.14 169.47 24.9C169.588 20.1198 167.907 15.4695 164.758 11.8708C161.609 8.27209 157.224 5.98758 152.47 5.47L151.47 5.36999C140.8 4.87999 134.41 13.64 134.2 24.3Z" fill="#FFBE9D"/>
<path d="M156.75 59.8C152.044 59.3902 147.566 57.5867 143.89 54.62C143.89 54.62 146.24 62.27 156.49 62.44L156.75 59.8Z" fill="#EB996E"/>
<path d="M165.78 31.42C165.744 31.8004 165.561 32.1516 165.269 32.3984C164.978 32.6452 164.601 32.7678 164.22 32.74C164.034 32.735 163.851 32.6926 163.681 32.6154C163.512 32.5382 163.36 32.4278 163.234 32.2907C163.108 32.1536 163.011 31.9926 162.948 31.8173C162.886 31.6419 162.859 31.4558 162.87 31.27C162.906 30.8915 163.088 30.5418 163.377 30.2953C163.666 30.0488 164.041 29.9249 164.42 29.95C164.607 29.9537 164.791 29.9951 164.962 30.0717C165.132 30.1483 165.286 30.2585 165.413 30.3958C165.54 30.533 165.638 30.6944 165.701 30.8704C165.764 31.0464 165.791 31.2333 165.78 31.42Z" fill="#263238"/>
<path d="M166.75 29.68C166.55 29.85 165.54 28.92 163.97 28.76C162.4 28.6 161.18 29.26 161.03 29.05C160.88 28.84 161.18 28.63 161.72 28.32C162.447 27.9238 163.277 27.7598 164.1 27.85C164.915 27.9406 165.68 28.2913 166.28 28.85C166.72 29.25 166.85 29.61 166.75 29.68Z" fill="#263238"/>
<path d="M150.39 30.32C150.354 30.7004 150.171 31.0516 149.879 31.2984C149.588 31.5452 149.211 31.6678 148.83 31.64C148.644 31.6336 148.461 31.5903 148.292 31.5128C148.122 31.4353 147.97 31.325 147.844 31.1884C147.717 31.0517 147.619 30.8913 147.555 30.7166C147.491 30.5418 147.462 30.356 147.47 30.17C147.51 29.7916 147.695 29.4433 147.986 29.1975C148.276 28.9517 148.65 28.8273 149.03 28.85C149.216 28.8551 149.4 28.8974 149.57 28.9745C149.74 29.0515 149.893 29.1618 150.019 29.2987C150.146 29.4357 150.244 29.5966 150.308 29.7719C150.371 29.9473 150.399 30.1337 150.39 30.32Z" fill="#263238"/>
<path d="M151.35 28.34C151.15 28.51 150.14 27.58 148.57 27.41C147 27.24 145.78 27.91 145.63 27.7C145.48 27.49 145.78 27.29 146.32 26.98C147.046 26.5807 147.877 26.4165 148.7 26.51C149.514 26.6054 150.277 26.9554 150.88 27.51C151.32 27.9 151.45 28.26 151.35 28.34Z" fill="#263238"/>
<path d="M155.79 40.54C156.642 40.3669 157.512 40.303 158.38 40.35C158.79 40.35 159.17 40.35 159.27 40.05C159.343 39.6384 159.294 39.2144 159.13 38.83C158.85 37.83 158.57 36.77 158.27 35.67C157.09 31.17 156.27 27.48 156.46 27.43C156.65 27.38 157.75 31 158.93 35.5C159.21 36.61 159.48 37.67 159.73 38.68C159.922 39.1927 159.922 39.7573 159.73 40.27C159.659 40.4051 159.558 40.5222 159.435 40.6123C159.312 40.7024 159.17 40.7632 159.02 40.79C158.791 40.8191 158.559 40.8191 158.33 40.79C157.476 40.8086 156.624 40.7246 155.79 40.54V40.54Z" fill="#263238"/>
<path d="M151.08 41.13C151.33 41.13 151.16 42.84 152.48 44.2C153.8 45.56 155.63 45.56 155.62 45.8C155.61 46.04 155.18 46.09 154.41 46.03C153.414 45.9335 152.484 45.4912 151.78 44.78C151.108 44.0967 150.727 43.1786 150.72 42.22C150.73 41.51 151 41.11 151.08 41.13Z" fill="#263238"/>
<path d="M152.41 22.25C152.21 22.66 150.67 22.25 148.81 22.32C146.95 22.39 145.42 22.69 145.21 22.32C145.13 22.13 145.43 21.76 146.07 21.41C146.922 20.9893 147.86 20.7705 148.81 20.7705C149.76 20.7705 150.698 20.9893 151.55 21.41C152.19 21.69 152.5 22.06 152.41 22.25Z" fill="#263238"/>
<path d="M166.66 25.1C166.35 25.42 165.31 24.94 164.02 24.78C162.73 24.62 161.6 24.78 161.39 24.37C161.29 24.18 161.5 23.84 162.02 23.55C162.703 23.2099 163.475 23.0877 164.23 23.2C164.977 23.3004 165.676 23.6286 166.23 24.14C166.69 24.55 166.8 24.94 166.66 25.1Z" fill="#263238"/>
<path d="M134.23 31.92C134.06 31.83 127.46 29.11 126.94 36.09C126.42 43.07 133.54 42.15 133.56 41.95C133.58 41.75 134.23 31.92 134.23 31.92Z" fill="#FFBE9D"/>
<path d="M131.63 39.15C131.63 39.15 131.5 39.23 131.29 39.31C130.991 39.4065 130.667 39.3887 130.38 39.26C129.951 38.9385 129.613 38.5095 129.403 38.0161C129.192 37.5227 129.115 36.9825 129.18 36.45C129.208 35.8523 129.369 35.2683 129.65 34.74C129.733 34.5246 129.868 34.3328 130.042 34.1812C130.217 34.0296 130.425 33.9228 130.65 33.87C130.792 33.8462 130.938 33.8719 131.064 33.9429C131.19 34.0139 131.287 34.1258 131.34 34.26C131.42 34.46 131.34 34.6 131.4 34.61C131.46 34.62 131.56 34.51 131.53 34.21C131.503 34.0349 131.414 33.8753 131.28 33.76C131.191 33.6796 131.087 33.6178 130.973 33.5783C130.86 33.5388 130.74 33.5224 130.62 33.53C130.329 33.5683 130.052 33.6802 129.815 33.8551C129.579 34.0301 129.392 34.2624 129.27 34.53C128.933 35.1125 128.741 35.7676 128.71 36.44C128.65 37.85 129.27 39.22 130.26 39.59C130.443 39.6568 130.639 39.6815 130.833 39.6625C131.026 39.6434 131.213 39.5811 131.38 39.48C131.6 39.32 131.65 39.16 131.63 39.15Z" fill="#EB996E"/>
<path d="M171.85 23C169.535 23.3355 167.174 23.118 164.96 22.3654C162.745 21.6128 160.741 20.3464 159.11 18.67C156.86 16.31 155.27 13.09 152.27 11.8C151.242 11.4071 150.146 11.2217 149.046 11.2543C147.946 11.2869 146.863 11.5369 145.86 11.99C143.856 12.9135 142.066 14.2413 140.6 15.89C142.01 21.27 140.08 26.89 138.17 32.12C138.016 32.7242 137.664 33.2593 137.17 33.64C136.28 34.19 135.1 33.56 134.46 32.73C133.543 31.3231 133.056 29.6793 133.06 28C132.725 24.1936 133.153 20.3586 134.32 16.72C135.506 13.076 137.731 9.85772 140.72 7.46001C144.596 4.59745 149.434 3.35646 154.21 4C158.96 4.64761 163.383 6.779 166.85 10.09C168.528 11.5431 169.817 13.3924 170.6 15.47" fill="#FFC100"/>
<path d="M309.71 55.56L290.66 135.23H295.99L314.75 55.56H309.71Z" fill="#263238"/>
<path d="M302.39 108C302.05 109.46 311.02 152.89 311.02 152.89H306.7L299.93 118.47L302.39 108Z" fill="#263238"/>
<path d="M365.83 210.33H276.6V304.92H365.83V210.33Z" fill="#263238"/>
<path d="M370.2 224.15H365.82V228.53H370.2V224.15Z" fill="#263238"/>
<path d="M370.2 238.06H365.82V242.44H370.2V238.06Z" fill="#263238"/>
<path d="M370.2 251.97H365.82V256.35H370.2V251.97Z" fill="#263238"/>
<path d="M370.2 265.88H365.82V270.26H370.2V265.88Z" fill="#263238"/>
<path d="M370.37 253.25C370.806 253.11 371.255 253.013 371.71 252.96C372.95 252.729 374.208 252.609 375.47 252.6C377.375 252.555 379.255 253.051 380.89 254.03C381.908 254.642 382.73 255.532 383.262 256.594C383.793 257.657 384.011 258.848 383.89 260.03C383.793 261.249 383.402 262.426 382.75 263.46C382.143 264.41 381.363 265.238 380.45 265.9C378.902 266.998 377.111 267.705 375.23 267.96C373.982 268.144 372.718 268.187 371.46 268.09C370.997 268.08 370.538 268.016 370.09 267.9C370.546 267.863 371.004 267.863 371.46 267.9C372.703 267.919 373.945 267.822 375.17 267.61C376.976 267.317 378.689 266.604 380.17 265.53C381.07 264.892 381.823 264.069 382.377 263.114C382.931 262.16 383.273 261.098 383.38 260C383.495 258.908 383.297 257.806 382.811 256.822C382.324 255.837 381.568 255.011 380.63 254.44C379.074 253.488 377.285 252.982 375.46 252.98C374.217 252.954 372.974 253.018 371.74 253.17C371.287 253.244 370.828 253.27 370.37 253.25Z" fill="#263238"/>
<path d="M369.28 239.42C369.405 239.319 369.543 239.235 369.69 239.17C370.109 238.963 370.544 238.79 370.99 238.65C372.648 238.118 374.413 238.019 376.12 238.36C376.699 238.472 377.253 238.692 377.75 239.01C378.305 239.378 378.712 239.931 378.9 240.57C379.123 241.654 378.96 242.782 378.439 243.759C377.919 244.736 377.074 245.5 376.05 245.92C375.662 246.072 375.247 246.139 374.831 246.117C374.415 246.094 374.009 245.983 373.64 245.79C373.241 245.597 372.902 245.3 372.657 244.93C372.413 244.561 372.272 244.133 372.25 243.69C372.268 243.234 372.409 242.791 372.659 242.408C372.91 242.026 373.259 241.719 373.67 241.52C374.464 241.14 375.364 241.045 376.22 241.25C377.035 241.427 377.798 241.79 378.45 242.31C379.689 243.298 380.487 244.736 380.67 246.31C380.82 247.74 380.411 249.173 379.53 250.31C378.801 251.275 377.865 252.065 376.79 252.62C375.227 253.383 373.527 253.826 371.79 253.92C371.19 253.97 370.72 253.99 370.4 253.99C370.238 254.016 370.072 254.016 369.91 253.99C369.91 253.99 370.58 253.9 371.77 253.75C373.45 253.574 375.083 253.093 376.59 252.33C377.601 251.778 378.479 251.01 379.16 250.08C379.939 249.032 380.296 247.729 380.16 246.43C379.974 244.997 379.234 243.694 378.1 242.8C377.517 242.331 376.832 242.006 376.1 241.85C375.359 241.675 374.582 241.752 373.89 242.07C373.563 242.225 373.284 242.466 373.084 242.767C372.883 243.068 372.768 243.418 372.75 243.78C372.775 244.128 372.891 244.463 373.085 244.753C373.28 245.042 373.547 245.276 373.86 245.43C374.165 245.593 374.502 245.688 374.848 245.707C375.193 245.726 375.539 245.669 375.86 245.54C376.507 245.293 377.076 244.879 377.51 244.34C377.947 243.868 378.265 243.299 378.439 242.68C378.613 242.062 378.637 241.41 378.51 240.78C378.328 240.252 378.003 239.784 377.57 239.431C377.137 239.078 376.614 238.852 376.06 238.78C374.408 238.419 372.693 238.46 371.06 238.9C369.89 239.15 369.3 239.47 369.28 239.42Z" fill="#263238"/>
<path d="M369.32 225.85C369.636 225.718 369.978 225.657 370.32 225.67C371.226 225.605 372.137 225.717 373 226C374.293 226.436 375.443 227.213 376.33 228.25C377.417 229.539 378.028 231.164 378.06 232.85C378.126 234.534 377.618 236.191 376.62 237.55C375.79 238.645 374.677 239.492 373.4 240C372.56 240.351 371.66 240.534 370.75 240.54C370.412 240.574 370.071 240.533 369.75 240.42C370.946 240.383 372.125 240.129 373.23 239.67C374.404 239.137 375.42 238.31 376.18 237.27C377.078 235.985 377.538 234.444 377.491 232.877C377.444 231.31 376.893 229.799 375.92 228.57C375.093 227.585 374.03 226.824 372.83 226.36C371.701 225.979 370.511 225.806 369.32 225.85V225.85Z" fill="#263238"/>
<path d="M303.09 160.07C303.405 160.63 303.657 161.224 303.84 161.84C304.382 163.595 304.78 165.391 305.03 167.21C305.4 169.57 305.71 172.48 306.03 175.85C306.35 179.22 306.62 183.08 307.16 187.31C307.3 188.36 307.47 189.44 307.69 190.53C307.894 191.639 308.23 192.72 308.69 193.75C309.282 194.754 310.02 195.664 310.88 196.45C313.628 199.091 317.179 200.738 320.97 201.13C323.673 201.441 326.408 200.969 328.85 199.77C330.119 199.147 331.234 198.249 332.115 197.142C332.995 196.036 333.618 194.747 333.94 193.37C334.262 191.955 334.157 190.476 333.64 189.12C333.067 187.755 332.103 186.589 330.87 185.77C329.616 184.929 328.158 184.445 326.65 184.37C325.126 184.286 323.618 184.727 322.38 185.62C321.765 186.064 321.268 186.651 320.93 187.33C320.604 188.008 320.506 188.772 320.65 189.51C320.825 190.264 321.164 190.971 321.642 191.579C322.121 192.187 322.728 192.683 323.42 193.03C324.848 193.731 326.395 194.158 327.98 194.29C329.553 194.489 331.135 194.599 332.72 194.62C335.834 194.639 338.947 194.466 342.04 194.1C348.12 193.42 354.04 192.44 359.67 192.38C365.3 192.32 370.81 193.1 375.38 195.38C377.597 196.435 379.583 197.92 381.22 199.75C382.713 201.463 383.745 203.528 384.22 205.75C385.021 209.588 384.399 213.586 382.47 217C381.01 219.541 378.98 221.707 376.54 223.33C375.016 224.362 373.37 225.202 371.64 225.83C371.039 226.052 370.424 226.236 369.8 226.38L370.26 226.21C370.57 226.12 371.02 225.95 371.6 225.73C373.306 225.068 374.928 224.205 376.43 223.16C378.815 221.529 380.796 219.374 382.22 216.86C384.061 213.506 384.639 209.604 383.85 205.86C383.353 203.699 382.322 201.698 380.85 200.04C379.24 198.261 377.292 196.82 375.12 195.8C370.62 193.62 365.21 192.8 359.61 192.93C354.01 193.06 348.13 193.98 342.02 194.67C338.908 195.053 335.775 195.234 332.64 195.21C331.035 195.189 329.433 195.079 327.84 194.88C326.191 194.741 324.583 194.293 323.1 193.56C322.347 193.171 321.689 192.622 321.171 191.952C320.652 191.282 320.287 190.506 320.1 189.68C319.938 188.834 320.05 187.958 320.42 187.18C320.795 186.426 321.348 185.774 322.03 185.28C323.363 184.314 324.986 183.834 326.63 183.92C328.235 184.006 329.786 184.524 331.12 185.42C332.435 186.296 333.462 187.542 334.07 189C334.623 190.452 334.734 192.035 334.39 193.55C334.051 194.996 333.394 196.349 332.467 197.51C331.54 198.67 330.366 199.61 329.03 200.26C326.504 201.5 323.674 201.983 320.88 201.65C318.258 201.378 315.734 200.509 313.5 199.11C312.436 198.457 311.447 197.689 310.55 196.82C309.659 195.999 308.897 195.049 308.29 194C307.824 192.934 307.488 191.816 307.29 190.67C307.077 189.57 306.907 188.49 306.78 187.43C306.26 183.18 306.01 179.33 305.72 175.95C305.43 172.57 305.15 169.67 304.82 167.31C304.593 165.495 304.228 163.7 303.73 161.94C303.598 161.482 303.441 161.031 303.26 160.59C303.193 160.42 303.136 160.247 303.09 160.07V160.07Z" fill="#263238"/>
<path d="M360.75 301C360.75 301 360.75 300.86 360.75 300.58C360.75 300.3 360.75 299.9 360.75 299.38C360.75 298.3 360.75 296.73 360.75 294.69C360.75 290.58 360.75 284.58 360.69 276.97C360.69 261.74 360.62 240.04 360.57 214.08L360.8 214.31H280.15L280.41 214.05C280.41 246.05 280.41 275.87 280.41 300.97L280.19 300.75L338.63 300.86L355.02 300.92H359.35H360.85H359.4L355 301L338.67 301.06L280.08 301.17H279.85V301C279.85 275.9 279.85 246 279.85 214.08V213.82H280.12H360.77H361V214C360.95 240 360.91 261.77 360.88 277C360.88 284.6 360.88 290.58 360.82 294.67C360.82 296.67 360.82 298.25 360.82 299.32C360.82 299.83 360.82 300.22 360.82 300.5C360.82 300.78 360.75 301 360.75 301Z" fill="#263238"/>
<path d="M338 224.73C338.001 224.785 337.992 224.839 337.972 224.89C337.952 224.941 337.922 224.987 337.883 225.026C337.845 225.066 337.8 225.097 337.749 225.118C337.699 225.139 337.645 225.15 337.59 225.15C337.53 225.159 337.469 225.156 337.411 225.139C337.352 225.122 337.298 225.093 337.252 225.054C337.206 225.015 337.169 224.966 337.144 224.911C337.118 224.856 337.105 224.796 337.105 224.735C337.105 224.674 337.118 224.614 337.144 224.559C337.169 224.504 337.206 224.455 337.252 224.416C337.298 224.377 337.352 224.348 337.411 224.331C337.469 224.314 337.53 224.311 337.59 224.32C337.699 224.32 337.803 224.363 337.88 224.44C337.957 224.517 338 224.621 338 224.73V224.73Z" fill="#263238"/>
<path d="M340.31 224.73C340.311 224.785 340.302 224.839 340.282 224.89C340.262 224.941 340.232 224.987 340.194 225.026C340.155 225.066 340.11 225.097 340.059 225.118C340.009 225.139 339.955 225.15 339.9 225.15C339.84 225.159 339.779 225.156 339.721 225.139C339.662 225.122 339.608 225.093 339.562 225.054C339.516 225.015 339.479 224.966 339.454 224.911C339.429 224.856 339.415 224.796 339.415 224.735C339.415 224.674 339.429 224.614 339.454 224.559C339.479 224.504 339.516 224.455 339.562 224.416C339.608 224.377 339.662 224.348 339.721 224.331C339.779 224.314 339.84 224.311 339.9 224.32C340.009 224.32 340.113 224.363 340.19 224.44C340.267 224.517 340.31 224.621 340.31 224.73Z" fill="#263238"/>
<path d="M342.59 224.73C342.591 224.785 342.582 224.839 342.562 224.89C342.542 224.941 342.512 224.987 342.473 225.026C342.435 225.066 342.39 225.097 342.339 225.118C342.289 225.139 342.235 225.15 342.18 225.15C342.12 225.159 342.059 225.156 342.001 225.139C341.942 225.122 341.888 225.093 341.842 225.054C341.796 225.015 341.759 224.966 341.734 224.911C341.708 224.856 341.695 224.796 341.695 224.735C341.695 224.674 341.708 224.614 341.734 224.559C341.759 224.504 341.796 224.455 341.842 224.416C341.888 224.377 341.942 224.348 342.001 224.331C342.059 224.314 342.12 224.311 342.18 224.32C342.289 224.32 342.393 224.363 342.47 224.44C342.547 224.517 342.59 224.621 342.59 224.73Z" fill="#263238"/>
<path d="M344.87 224.73C344.872 224.813 344.849 224.896 344.804 224.966C344.759 225.036 344.694 225.092 344.618 225.125C344.541 225.158 344.457 225.168 344.374 225.153C344.292 225.138 344.217 225.099 344.157 225.041C344.097 224.982 344.056 224.907 344.039 224.826C344.022 224.744 344.03 224.659 344.061 224.582C344.093 224.504 344.146 224.438 344.216 224.392C344.285 224.345 344.367 224.32 344.45 224.32C344.56 224.32 344.665 224.363 344.744 224.439C344.822 224.516 344.867 224.62 344.87 224.73V224.73Z" fill="#263238"/>
<path d="M347.15 224.73C347.15 224.841 347.106 224.948 347.027 225.027C346.948 225.106 346.841 225.15 346.73 225.15C346.631 225.135 346.541 225.084 346.476 225.008C346.41 224.932 346.375 224.835 346.375 224.735C346.375 224.635 346.41 224.538 346.476 224.462C346.541 224.386 346.631 224.335 346.73 224.32C346.84 224.32 346.945 224.363 347.024 224.439C347.102 224.516 347.147 224.62 347.15 224.73V224.73Z" fill="#263238"/>
<path d="M349.43 224.73C349.43 224.841 349.386 224.948 349.307 225.027C349.228 225.106 349.121 225.15 349.01 225.15C348.911 225.135 348.821 225.084 348.756 225.008C348.69 224.932 348.655 224.835 348.655 224.735C348.655 224.635 348.69 224.538 348.756 224.462C348.821 224.386 348.911 224.335 349.01 224.32C349.12 224.32 349.225 224.363 349.303 224.439C349.382 224.516 349.427 224.62 349.43 224.73V224.73Z" fill="#263238"/>
<path d="M351.71 224.73C351.71 224.841 351.666 224.948 351.587 225.027C351.508 225.106 351.401 225.15 351.29 225.15C351.191 225.135 351.101 225.084 351.036 225.008C350.97 224.932 350.935 224.835 350.935 224.735C350.935 224.635 350.97 224.538 351.036 224.462C351.101 224.386 351.191 224.335 351.29 224.32C351.4 224.32 351.505 224.363 351.583 224.439C351.662 224.516 351.707 224.62 351.71 224.73V224.73Z" fill="#263238"/>
<path d="M350.24 226.68C350.466 226.68 350.65 226.496 350.65 226.27C350.65 226.044 350.466 225.86 350.24 225.86C350.014 225.86 349.83 226.044 349.83 226.27C349.83 226.496 350.014 226.68 350.24 226.68Z" fill="#263238"/>
<path d="M347.91 226.68C348.136 226.68 348.32 226.496 348.32 226.27C348.32 226.044 348.136 225.86 347.91 225.86C347.684 225.86 347.5 226.044 347.5 226.27C347.5 226.496 347.684 226.68 347.91 226.68Z" fill="#263238"/>
<path d="M346 226.27C346 226.324 345.989 226.377 345.969 226.427C345.948 226.477 345.918 226.522 345.88 226.56C345.842 226.598 345.797 226.628 345.747 226.649C345.697 226.669 345.644 226.68 345.59 226.68C345.535 226.681 345.481 226.672 345.43 226.652C345.379 226.632 345.333 226.602 345.294 226.564C345.255 226.525 345.223 226.48 345.202 226.429C345.181 226.379 345.17 226.325 345.17 226.27C345.17 226.215 345.181 226.16 345.202 226.109C345.223 226.058 345.254 226.012 345.293 225.973C345.332 225.934 345.378 225.903 345.429 225.882C345.48 225.861 345.535 225.85 345.59 225.85C345.645 225.85 345.699 225.861 345.749 225.882C345.8 225.903 345.845 225.934 345.884 225.974C345.922 226.013 345.952 226.059 345.972 226.11C345.992 226.161 346.001 226.215 346 226.27V226.27Z" fill="#263238"/>
<path d="M343.25 226.68C343.476 226.68 343.66 226.496 343.66 226.27C343.66 226.044 343.476 225.86 343.25 225.86C343.024 225.86 342.84 226.044 342.84 226.27C342.84 226.496 343.024 226.68 343.25 226.68Z" fill="#263238"/>
<path d="M340.91 226.68C341.136 226.68 341.32 226.496 341.32 226.27C341.32 226.044 341.136 225.86 340.91 225.86C340.684 225.86 340.5 226.044 340.5 226.27C340.5 226.496 340.684 226.68 340.91 226.68Z" fill="#263238"/>
<path d="M339 226.27C339 226.325 338.989 226.379 338.968 226.429C338.947 226.48 338.916 226.525 338.876 226.564C338.837 226.602 338.791 226.632 338.74 226.652C338.689 226.672 338.635 226.681 338.58 226.68C338.471 226.68 338.367 226.637 338.29 226.56C338.213 226.483 338.17 226.379 338.17 226.27C338.169 226.215 338.178 226.161 338.198 226.11C338.218 226.059 338.248 226.013 338.287 225.974C338.325 225.934 338.37 225.903 338.421 225.882C338.471 225.861 338.525 225.85 338.58 225.85C338.635 225.85 338.69 225.861 338.741 225.882C338.792 225.903 338.838 225.934 338.877 225.973C338.916 226.012 338.947 226.058 338.968 226.109C338.989 226.16 339 226.215 339 226.27V226.27Z" fill="#263238"/>
<path d="M338 228C338 228.109 337.957 228.213 337.88 228.29C337.803 228.367 337.699 228.41 337.59 228.41C337.535 228.411 337.481 228.402 337.43 228.382C337.379 228.362 337.333 228.332 337.294 228.294C337.255 228.255 337.223 228.21 337.202 228.159C337.181 228.109 337.17 228.055 337.17 228C337.17 227.889 337.214 227.782 337.293 227.703C337.372 227.624 337.479 227.58 337.59 227.58C337.645 227.58 337.699 227.591 337.749 227.612C337.8 227.633 337.845 227.664 337.884 227.704C337.922 227.743 337.952 227.789 337.972 227.84C337.992 227.891 338.001 227.945 338 228V228Z" fill="#263238"/>
<path d="M340.31 228C340.31 228.109 340.267 228.213 340.19 228.29C340.113 228.367 340.009 228.41 339.9 228.41C339.845 228.411 339.791 228.402 339.74 228.382C339.689 228.362 339.643 228.332 339.604 228.294C339.564 228.255 339.533 228.21 339.512 228.159C339.491 228.109 339.48 228.055 339.48 228C339.48 227.889 339.524 227.782 339.603 227.703C339.682 227.624 339.789 227.58 339.9 227.58C339.955 227.58 340.009 227.591 340.059 227.612C340.11 227.633 340.155 227.664 340.193 227.704C340.232 227.743 340.262 227.789 340.282 227.84C340.302 227.891 340.311 227.945 340.31 228V228Z" fill="#263238"/>
<path d="M342.59 228C342.59 228.109 342.547 228.213 342.47 228.29C342.393 228.367 342.289 228.41 342.18 228.41C342.125 228.411 342.071 228.402 342.02 228.382C341.969 228.362 341.923 228.332 341.884 228.294C341.844 228.255 341.813 228.21 341.792 228.159C341.771 228.109 341.76 228.055 341.76 228C341.76 227.945 341.771 227.89 341.792 227.839C341.813 227.788 341.844 227.742 341.883 227.703C341.922 227.664 341.968 227.633 342.019 227.612C342.07 227.591 342.125 227.58 342.18 227.58C342.235 227.58 342.289 227.591 342.339 227.612C342.39 227.633 342.435 227.664 342.474 227.704C342.512 227.743 342.542 227.789 342.562 227.84C342.582 227.891 342.591 227.945 342.59 228V228Z" fill="#263238"/>
<path d="M344.87 228C344.855 228.099 344.804 228.189 344.728 228.254C344.652 228.32 344.555 228.355 344.455 228.355C344.355 228.355 344.258 228.32 344.182 228.254C344.106 228.189 344.055 228.099 344.04 228C344.031 227.94 344.034 227.879 344.051 227.821C344.068 227.762 344.097 227.708 344.136 227.662C344.175 227.616 344.224 227.579 344.279 227.554C344.335 227.529 344.394 227.515 344.455 227.515C344.516 227.515 344.576 227.529 344.631 227.554C344.686 227.579 344.735 227.616 344.774 227.662C344.813 227.708 344.842 227.762 344.859 227.821C344.876 227.879 344.879 227.94 344.87 228Z" fill="#263238"/>
<path d="M347.15 228C347.15 228.055 347.139 228.109 347.118 228.159C347.097 228.21 347.065 228.255 347.026 228.294C346.987 228.332 346.941 228.362 346.89 228.382C346.839 228.402 346.785 228.411 346.73 228.41C346.621 228.41 346.517 228.367 346.44 228.29C346.363 228.213 346.32 228.109 346.32 228C346.319 227.945 346.328 227.891 346.348 227.84C346.368 227.789 346.398 227.743 346.436 227.704C346.475 227.664 346.52 227.633 346.571 227.612C346.621 227.591 346.675 227.58 346.73 227.58C346.841 227.58 346.948 227.624 347.027 227.703C347.106 227.782 347.15 227.889 347.15 228V228Z" fill="#263238"/>
<path d="M349.43 228C349.43 228.055 349.419 228.109 349.398 228.159C349.377 228.21 349.346 228.255 349.306 228.294C349.267 228.332 349.221 228.362 349.17 228.382C349.119 228.402 349.065 228.411 349.01 228.41C348.901 228.41 348.797 228.367 348.72 228.29C348.643 228.213 348.6 228.109 348.6 228C348.599 227.945 348.608 227.891 348.628 227.84C348.648 227.789 348.678 227.743 348.716 227.704C348.755 227.664 348.8 227.633 348.851 227.612C348.901 227.591 348.955 227.58 349.01 227.58C349.121 227.58 349.228 227.624 349.307 227.703C349.386 227.782 349.43 227.889 349.43 228V228Z" fill="#263238"/>
<path d="M351.71 228C351.71 228.055 351.699 228.109 351.678 228.159C351.657 228.21 351.626 228.255 351.586 228.294C351.547 228.332 351.501 228.362 351.45 228.382C351.399 228.402 351.345 228.411 351.29 228.41C351.236 228.41 351.183 228.399 351.133 228.379C351.083 228.358 351.038 228.328 351 228.29C350.962 228.252 350.932 228.207 350.911 228.157C350.891 228.107 350.88 228.054 350.88 228C350.879 227.945 350.888 227.891 350.908 227.84C350.928 227.789 350.958 227.743 350.996 227.704C351.035 227.664 351.08 227.633 351.131 227.612C351.181 227.591 351.235 227.58 351.29 227.58C351.401 227.58 351.508 227.624 351.587 227.703C351.666 227.782 351.71 227.889 351.71 228V228Z" fill="#263238"/>
<path d="M350.66 229.53C350.66 229.641 350.616 229.748 350.537 229.827C350.458 229.906 350.351 229.95 350.24 229.95C350.185 229.95 350.131 229.939 350.081 229.918C350.03 229.897 349.985 229.866 349.946 229.826C349.908 229.787 349.878 229.741 349.858 229.69C349.838 229.639 349.829 229.585 349.83 229.53C349.83 229.421 349.873 229.317 349.95 229.24C350.027 229.163 350.131 229.12 350.24 229.12C350.295 229.119 350.349 229.128 350.4 229.148C350.451 229.168 350.497 229.198 350.536 229.236C350.576 229.275 350.607 229.32 350.628 229.371C350.649 229.421 350.66 229.475 350.66 229.53V229.53Z" fill="#263238"/>
<path d="M348.32 229.53C348.321 229.585 348.312 229.639 348.292 229.69C348.272 229.741 348.242 229.787 348.204 229.826C348.165 229.866 348.12 229.897 348.069 229.918C348.019 229.939 347.965 229.95 347.91 229.95C347.799 229.95 347.692 229.906 347.613 229.827C347.534 229.748 347.49 229.641 347.49 229.53C347.49 229.475 347.501 229.421 347.522 229.371C347.543 229.32 347.574 229.275 347.614 229.236C347.653 229.198 347.699 229.168 347.75 229.148C347.801 229.128 347.855 229.119 347.91 229.12C348.019 229.12 348.123 229.163 348.2 229.24C348.277 229.317 348.32 229.421 348.32 229.53V229.53Z" fill="#263238"/>
<path d="M346 229.53C346.001 229.585 345.992 229.639 345.972 229.69C345.952 229.741 345.922 229.787 345.884 229.826C345.845 229.866 345.8 229.897 345.749 229.918C345.699 229.939 345.645 229.95 345.59 229.95C345.535 229.95 345.48 229.939 345.429 229.918C345.378 229.897 345.332 229.866 345.293 229.827C345.254 229.788 345.223 229.742 345.202 229.691C345.181 229.64 345.17 229.585 345.17 229.53C345.17 229.475 345.181 229.421 345.202 229.371C345.223 229.32 345.255 229.275 345.294 229.236C345.333 229.198 345.379 229.168 345.43 229.148C345.481 229.128 345.535 229.119 345.59 229.12C345.644 229.12 345.697 229.131 345.747 229.151C345.797 229.172 345.842 229.202 345.88 229.24C345.918 229.278 345.948 229.323 345.969 229.373C345.989 229.423 346 229.476 346 229.53Z" fill="#263238"/>
<path d="M343.66 229.53C343.661 229.585 343.652 229.639 343.632 229.69C343.612 229.741 343.582 229.787 343.543 229.826C343.505 229.866 343.46 229.897 343.409 229.918C343.359 229.939 343.305 229.95 343.25 229.95C343.139 229.95 343.032 229.906 342.953 229.827C342.874 229.748 342.83 229.641 342.83 229.53C342.83 229.475 342.841 229.421 342.862 229.371C342.883 229.32 342.914 229.275 342.954 229.236C342.993 229.198 343.039 229.168 343.09 229.148C343.141 229.128 343.195 229.119 343.25 229.12C343.359 229.12 343.463 229.163 343.54 229.24C343.617 229.317 343.66 229.421 343.66 229.53V229.53Z" fill="#263238"/>
<path d="M341.33 229.53C341.339 229.59 341.336 229.651 341.319 229.709C341.302 229.768 341.273 229.822 341.234 229.868C341.195 229.914 341.146 229.951 341.091 229.976C341.036 230.001 340.976 230.015 340.915 230.015C340.854 230.015 340.794 230.001 340.739 229.976C340.684 229.951 340.635 229.914 340.596 229.868C340.557 229.822 340.528 229.768 340.511 229.709C340.494 229.651 340.491 229.59 340.5 229.53C340.515 229.431 340.566 229.341 340.642 229.276C340.718 229.21 340.815 229.175 340.915 229.175C341.015 229.175 341.112 229.21 341.188 229.276C341.264 229.341 341.315 229.431 341.33 229.53V229.53Z" fill="#263238"/>
<path d="M339 229.53C339 229.641 338.956 229.748 338.877 229.827C338.798 229.906 338.691 229.95 338.58 229.95C338.525 229.95 338.471 229.939 338.421 229.918C338.37 229.897 338.325 229.866 338.287 229.826C338.248 229.787 338.218 229.741 338.198 229.69C338.178 229.639 338.169 229.585 338.17 229.53C338.17 229.421 338.213 229.317 338.29 229.24C338.367 229.163 338.471 229.12 338.58 229.12C338.635 229.119 338.689 229.128 338.74 229.148C338.791 229.168 338.837 229.198 338.876 229.236C338.916 229.275 338.947 229.32 338.968 229.371C338.989 229.421 339 229.475 339 229.53Z" fill="#263238"/>
<path d="M338 231.26C338.001 231.315 337.992 231.369 337.972 231.42C337.952 231.471 337.922 231.517 337.884 231.556C337.845 231.596 337.8 231.627 337.749 231.648C337.699 231.669 337.645 231.68 337.59 231.68C337.479 231.68 337.372 231.636 337.293 231.557C337.214 231.478 337.17 231.371 337.17 231.26C337.17 231.205 337.181 231.151 337.202 231.101C337.223 231.05 337.255 231.005 337.294 230.966C337.333 230.928 337.379 230.898 337.43 230.878C337.481 230.858 337.535 230.849 337.59 230.85C337.699 230.85 337.803 230.893 337.88 230.97C337.957 231.047 338 231.151 338 231.26V231.26Z" fill="#263238"/>
<path d="M340.31 231.26C340.311 231.315 340.302 231.369 340.282 231.42C340.262 231.471 340.232 231.517 340.193 231.556C340.155 231.596 340.11 231.627 340.059 231.648C340.009 231.669 339.955 231.68 339.9 231.68C339.789 231.68 339.682 231.636 339.603 231.557C339.524 231.478 339.48 231.371 339.48 231.26C339.48 231.205 339.491 231.151 339.512 231.101C339.533 231.05 339.564 231.005 339.604 230.966C339.643 230.928 339.689 230.898 339.74 230.878C339.791 230.858 339.845 230.849 339.9 230.85C340.009 230.85 340.113 230.893 340.19 230.97C340.267 231.047 340.31 231.151 340.31 231.26V231.26Z" fill="#263238"/>
<path d="M342.59 231.26C342.591 231.315 342.582 231.369 342.562 231.42C342.542 231.471 342.512 231.517 342.474 231.556C342.435 231.596 342.39 231.627 342.339 231.648C342.289 231.669 342.235 231.68 342.18 231.68C342.125 231.68 342.07 231.669 342.019 231.648C341.968 231.627 341.922 231.596 341.883 231.557C341.844 231.518 341.813 231.472 341.792 231.421C341.771 231.37 341.76 231.315 341.76 231.26C341.76 231.205 341.771 231.151 341.792 231.101C341.813 231.05 341.844 231.005 341.884 230.966C341.923 230.928 341.969 230.898 342.02 230.878C342.071 230.858 342.125 230.849 342.18 230.85C342.289 230.85 342.393 230.893 342.47 230.97C342.547 231.047 342.59 231.151 342.59 231.26V231.26Z" fill="#263238"/>
<path d="M344.87 231.26C344.879 231.32 344.876 231.381 344.859 231.439C344.842 231.498 344.813 231.552 344.774 231.598C344.735 231.644 344.686 231.681 344.631 231.706C344.576 231.731 344.516 231.745 344.455 231.745C344.394 231.745 344.335 231.731 344.279 231.706C344.224 231.681 344.175 231.644 344.136 231.598C344.097 231.552 344.068 231.498 344.051 231.439C344.034 231.381 344.031 231.32 344.04 231.26C344.055 231.161 344.106 231.071 344.182 231.006C344.258 230.94 344.355 230.905 344.455 230.905C344.555 230.905 344.652 230.94 344.728 231.006C344.804 231.071 344.855 231.161 344.87 231.26V231.26Z" fill="#263238"/>
<path d="M347.15 231.26C347.15 231.371 347.106 231.478 347.027 231.557C346.948 231.636 346.841 231.68 346.73 231.68C346.675 231.68 346.621 231.669 346.571 231.648C346.52 231.627 346.475 231.596 346.436 231.556C346.398 231.517 346.368 231.471 346.348 231.42C346.328 231.369 346.319 231.315 346.32 231.26C346.32 231.151 346.363 231.047 346.44 230.97C346.517 230.893 346.621 230.85 346.73 230.85C346.785 230.849 346.839 230.858 346.89 230.878C346.941 230.898 346.987 230.928 347.026 230.966C347.065 231.005 347.097 231.05 347.118 231.101C347.139 231.151 347.15 231.205 347.15 231.26V231.26Z" fill="#263238"/>
<path d="M349.43 231.26C349.43 231.371 349.386 231.478 349.307 231.557C349.228 231.636 349.121 231.68 349.01 231.68C348.955 231.68 348.901 231.669 348.851 231.648C348.8 231.627 348.755 231.596 348.716 231.556C348.678 231.517 348.648 231.471 348.628 231.42C348.608 231.369 348.599 231.315 348.6 231.26C348.6 231.151 348.643 231.047 348.72 230.97C348.797 230.893 348.901 230.85 349.01 230.85C349.065 230.849 349.119 230.858 349.17 230.878C349.221 230.898 349.267 230.928 349.306 230.966C349.346 231.005 349.377 231.05 349.398 231.101C349.419 231.151 349.43 231.205 349.43 231.26Z" fill="#263238"/>
<path d="M351.71 231.26C351.71 231.371 351.666 231.478 351.587 231.557C351.508 231.636 351.401 231.68 351.29 231.68C351.235 231.68 351.181 231.669 351.131 231.648C351.08 231.627 351.035 231.596 350.996 231.556C350.958 231.517 350.928 231.471 350.908 231.42C350.888 231.369 350.879 231.315 350.88 231.26C350.88 231.206 350.891 231.153 350.911 231.103C350.932 231.053 350.962 231.008 351 230.97C351.038 230.932 351.083 230.902 351.133 230.881C351.183 230.861 351.236 230.85 351.29 230.85C351.345 230.849 351.399 230.858 351.45 230.878C351.501 230.898 351.547 230.928 351.586 230.966C351.626 231.005 351.657 231.05 351.678 231.101C351.699 231.151 351.71 231.205 351.71 231.26Z" fill="#263238"/>
<path d="M350.24 233.21C350.466 233.21 350.65 233.026 350.65 232.8C350.65 232.574 350.466 232.39 350.24 232.39C350.014 232.39 349.83 232.574 349.83 232.8C349.83 233.026 350.014 233.21 350.24 233.21Z" fill="#263238"/>
<path d="M347.91 233.21C348.136 233.21 348.32 233.026 348.32 232.8C348.32 232.574 348.136 232.39 347.91 232.39C347.684 232.39 347.5 232.574 347.5 232.8C347.5 233.026 347.684 233.21 347.91 233.21Z" fill="#263238"/>
<path d="M346 232.8C346 232.854 345.989 232.907 345.969 232.957C345.948 233.007 345.918 233.052 345.88 233.09C345.842 233.128 345.797 233.158 345.747 233.179C345.697 233.199 345.644 233.21 345.59 233.21C345.53 233.219 345.469 233.216 345.411 233.199C345.352 233.182 345.298 233.153 345.252 233.114C345.206 233.075 345.169 233.026 345.144 232.971C345.118 232.916 345.105 232.856 345.105 232.795C345.105 232.734 345.118 232.674 345.144 232.619C345.169 232.564 345.206 232.515 345.252 232.476C345.298 232.437 345.352 232.408 345.411 232.391C345.469 232.374 345.53 232.371 345.59 232.38C345.645 232.38 345.699 232.391 345.749 232.412C345.8 232.433 345.845 232.464 345.883 232.504C345.922 232.543 345.952 232.589 345.972 232.64C345.992 232.691 346.001 232.745 346 232.8V232.8Z" fill="#263238"/>
<path d="M343.25 233.21C343.476 233.21 343.66 233.026 343.66 232.8C343.66 232.574 343.476 232.39 343.25 232.39C343.024 232.39 342.84 232.574 342.84 232.8C342.84 233.026 343.024 233.21 343.25 233.21Z" fill="#263238"/>
<path d="M340.91 233.21C341.136 233.21 341.32 233.026 341.32 232.8C341.32 232.574 341.136 232.39 340.91 232.39C340.684 232.39 340.5 232.574 340.5 232.8C340.5 233.026 340.684 233.21 340.91 233.21Z" fill="#263238"/>
<path d="M339 232.8C338.997 232.91 338.952 233.014 338.874 233.091C338.795 233.167 338.69 233.21 338.58 233.21C338.481 233.195 338.391 233.144 338.326 233.068C338.26 232.992 338.225 232.895 338.225 232.795C338.225 232.695 338.26 232.598 338.326 232.522C338.391 232.446 338.481 232.395 338.58 232.38C338.691 232.38 338.798 232.424 338.877 232.503C338.956 232.582 339 232.689 339 232.8V232.8Z" fill="#263238"/>
<path d="M306.5 131.29C307.052 131.301 307.599 131.398 308.12 131.58C309.636 132.076 310.995 132.962 312.06 134.15C313.694 136.067 314.885 138.32 315.55 140.75C316.523 143.913 317.256 147.146 317.74 150.42C318.861 158.957 319.076 167.588 318.38 176.17C318.244 178.7 317.474 181.155 316.14 183.31C315.408 184.412 314.446 185.344 313.32 186.04C312.155 186.765 310.786 187.092 309.42 186.97C308.02 186.841 306.709 186.23 305.71 185.24C305.209 184.731 304.836 184.111 304.62 183.43C304.415 182.728 304.415 181.982 304.62 181.28C304.802 180.571 305.149 179.916 305.635 179.368C306.12 178.82 306.728 178.396 307.41 178.13C308.125 177.875 308.905 177.875 309.62 178.13C310.321 178.397 310.932 178.858 311.38 179.46C311.816 180.048 312.129 180.717 312.3 181.428C312.472 182.14 312.499 182.878 312.38 183.6C312.148 184.993 311.656 186.329 310.93 187.54C308.973 191.019 305.728 193.591 301.895 194.702C298.061 195.813 293.944 195.374 290.43 193.48C288.328 192.319 286.49 190.736 285.03 188.83C283.638 187.062 282.516 185.097 281.7 183C280.358 179.205 279.619 175.224 279.51 171.2C279.32 167.53 279.51 164.2 279.16 161.32C279.006 159.988 278.694 158.678 278.23 157.42C277.824 156.368 277.261 155.383 276.56 154.5C275.601 153.254 274.313 152.301 272.84 151.75C272.319 151.587 271.788 151.46 271.25 151.37C271.805 151.381 272.355 151.479 272.88 151.66C274.394 152.17 275.725 153.112 276.71 154.37C277.447 155.272 278.038 156.284 278.46 157.37C278.956 158.657 279.291 160.001 279.46 161.37C279.85 164.28 279.67 167.61 279.89 171.26C280.024 175.242 280.777 179.179 282.12 182.93C282.909 184.992 283.997 186.926 285.35 188.67C286.778 190.52 288.572 192.055 290.62 193.18C294.023 195.001 298.004 195.416 301.71 194.336C305.415 193.255 308.55 190.765 310.44 187.4C311.131 186.247 311.599 184.975 311.82 183.65C311.936 182.997 311.919 182.327 311.769 181.681C311.62 181.035 311.341 180.426 310.95 179.89C310.556 179.371 310.027 178.969 309.42 178.73C308.819 178.515 308.161 178.515 307.56 178.73C306.959 178.968 306.423 179.345 305.995 179.83C305.568 180.315 305.261 180.894 305.1 181.52C304.945 182.135 304.956 182.78 305.132 183.39C305.308 183.999 305.642 184.552 306.1 184.99C307.012 185.894 308.211 186.453 309.49 186.57C310.747 186.685 312.008 186.387 313.08 185.72C314.146 185.063 315.057 184.183 315.75 183.14C317.04 181.055 317.786 178.679 317.92 176.23C318.635 167.685 318.461 159.089 317.4 150.58C316.934 147.323 316.229 144.104 315.29 140.95C314.659 138.549 313.512 136.313 311.93 134.4C310.902 133.216 309.586 132.317 308.11 131.79C307.586 131.586 307.048 131.419 306.5 131.29V131.29Z" fill="#E0E0E0"/>
<path d="M298.65 145.76H265.43V152.09H298.65V145.76Z" fill="#E0E0E0"/>
<path d="M58.85 211.2H15.52V304.47H58.85V211.2Z" fill="#263238"/>
<path d="M55.13 294.65C55.13 294.65 55.13 294.51 55.13 294.24C55.13 293.97 55.13 293.58 55.13 293.08C55.13 292.08 55.13 290.55 55.13 288.62C55.13 284.72 55.13 279.07 55.06 271.96C55.06 257.74 54.99 237.72 54.94 214.43L55.19 214.67H18.94L19.2 214.41C19.2 245.57 19.2 273.87 19.13 294.63L18.94 294.44L45.41 294.54L52.65 294.59H54.54C54.97 294.59 55.2 294.59 55.2 294.59H54.58H52.72H45.53L18.94 294.69H18.76V294.5C18.76 273.74 18.76 245.44 18.68 214.28V214.02H55.45V214.27C55.45 237.63 55.36 257.71 55.33 271.97C55.33 279.05 55.33 284.69 55.26 288.57C55.26 290.48 55.26 291.96 55.26 292.98C55.26 293.47 55.26 293.84 55.26 294.11C55.26 294.38 55.13 294.65 55.13 294.65Z" fill="#455A64"/>
<path d="M52.89 221.22C52.89 221.22 52.89 220.87 52.89 220.22C52.89 219.57 52.89 218.66 52.83 217.52L52.94 217.63C47.33 217.72 35.31 217.78 21.42 217.78L21.68 217.52V219.38C21.68 219.99 21.68 220.6 21.68 221.19L21.43 220.93C30.24 220.93 38.08 220.99 43.75 221.04L50.46 221.11H52.29C52.5094 221.088 52.7305 221.088 52.95 221.11C52.7536 221.124 52.5564 221.124 52.36 221.11H50.58L43.94 221.18C38.28 221.24 30.35 221.29 21.43 221.29H21.17V217.36L21.44 217.1C35.33 217.1 47.35 217.16 52.96 217.25H53V217.36C53 218.53 53 219.45 52.94 220.13C52.9466 220.494 52.9299 220.858 52.89 221.22V221.22Z" fill="#455A64"/>
<path d="M24.54 223.86C24.54 224 23.89 224.12 23.09 224.12C22.29 224.12 21.63 224 21.63 223.86C21.63 223.72 22.28 223.6 23.09 223.6C23.9 223.6 24.54 223.71 24.54 223.86Z" fill="#455A64"/>
<path d="M52.05 228.67C52.05 228.81 45.34 228.93 37.05 228.93C28.76 228.93 22.05 228.81 22.05 228.67C22.05 228.53 28.75 228.41 37.05 228.41C45.35 228.41 52.05 228.53 52.05 228.67Z" fill="#455A64"/>
<path d="M52.18 234.48C52.18 234.63 45.58 234.74 37.45 234.74C29.32 234.74 22.72 234.63 22.72 234.48C22.72 234.33 29.31 234.22 37.45 234.22C45.59 234.22 52.18 234.34 52.18 234.48Z" fill="#455A64"/>
<path d="M37.06 250.45C38.3744 250.45 39.44 249.384 39.44 248.07C39.44 246.756 38.3744 245.69 37.06 245.69C35.7456 245.69 34.68 246.756 34.68 248.07C34.68 249.384 35.7456 250.45 37.06 250.45Z" fill="#FFC100"/>
<path d="M30.34 248C29.2971 248.255 28.2204 248.343 27.15 248.26C26.0929 248.34 25.0297 248.252 24 248C25.0384 247.739 26.1129 247.651 27.18 247.74C28.2405 247.655 29.3077 247.743 30.34 248Z" fill="#455A64"/>
<path d="M49.7 247.34C48.722 247.596 47.7075 247.684 46.7 247.6C45.6925 247.685 44.6779 247.597 43.7 247.34C44.6789 247.089 45.6925 247.001 46.7 247.08C47.7075 247.002 48.721 247.09 49.7 247.34V247.34Z" fill="#455A64"/>
<path d="M17 258C16.4522 257.948 15.91 257.848 15.38 257.7C13.8481 257.278 12.3979 256.602 11.09 255.7C9.01595 254.276 7.25629 252.442 5.92 250.31C4.18296 247.477 2.91022 244.385 2.15001 241.15C1.12784 237.261 0.739518 233.233 1.00001 229.22C1.25367 224.561 2.83221 220.072 5.55001 216.28C7.02635 214.24 8.86732 212.49 10.98 211.12C12.0807 210.425 13.2502 209.845 14.47 209.39C15.7218 208.952 17.0153 208.644 18.33 208.47C20.97 208.1 23.67 208.15 26.33 207.99C29.0636 207.933 31.7562 207.313 34.24 206.17C35.4607 205.607 36.5378 204.775 37.39 203.736C38.2423 202.696 38.8475 201.477 39.16 200.17C39.445 198.919 39.4406 197.619 39.1473 196.37C38.854 195.121 38.2794 193.956 37.4673 192.962C36.6552 191.969 35.6271 191.174 34.4613 190.638C33.2955 190.102 32.0227 189.839 30.74 189.87C29.5268 189.936 28.3621 190.368 27.4 191.11C26.9449 191.463 26.5805 191.919 26.337 192.441C26.0935 192.962 25.978 193.535 26 194.11C26.123 195.236 26.6364 196.284 27.451 197.071C28.2657 197.858 29.3303 198.336 30.46 198.42C31.544 198.44 32.6189 198.22 33.6078 197.776C34.5968 197.331 35.4751 196.674 36.18 195.85C37.5183 194.269 38.4822 192.406 39 190.4C39.497 188.555 39.8811 186.682 40.15 184.79C40.8677 179.049 41.0452 173.254 40.68 167.48C40.58 165.48 40.5 163.87 40.44 162.77C40.44 162.25 40.42 161.84 40.38 161.54C40.3667 161.4 40.3667 161.26 40.38 161.12C40.413 161.258 40.433 161.398 40.44 161.54C40.44 161.84 40.5 162.24 40.55 162.76C40.63 163.84 40.76 165.42 40.88 167.47C41.3286 173.258 41.2047 179.076 40.51 184.84C40.2512 186.752 39.8738 188.645 39.38 190.51C38.8677 192.568 37.9007 194.485 36.55 196.12C35.8041 196.997 34.8724 197.697 33.8225 198.169C32.7727 198.641 31.6309 198.874 30.48 198.85C29.2344 198.765 28.0588 198.243 27.1606 197.375C26.2623 196.508 25.699 195.352 25.57 194.11C25.5421 193.456 25.6699 192.805 25.9428 192.211C26.2158 191.616 26.6261 191.095 27.14 190.69C28.1754 189.879 29.4363 189.407 30.75 189.34C32.4573 189.322 34.1344 189.791 35.5854 190.69C37.0365 191.59 38.2018 192.884 38.9451 194.421C39.6885 195.958 39.9793 197.675 39.7836 199.371C39.5879 201.067 38.9138 202.673 37.84 204C36.9168 205.093 35.7758 205.982 34.49 206.61C31.9415 207.789 29.1772 208.429 26.37 208.49C23.64 208.65 20.95 208.6 18.37 208.95C17.0902 209.121 15.8307 209.419 14.61 209.84C13.4237 210.278 12.2873 210.841 11.22 211.52C9.1566 212.848 7.35358 214.543 5.90001 216.52C3.2296 220.235 1.66908 224.633 1.40001 229.2C1.14068 233.178 1.51877 237.172 2.52 241.03C3.2582 244.232 4.49315 247.3 6.18001 250.12C7.46686 252.232 9.16763 254.062 11.18 255.5C12.4648 256.406 13.886 257.102 15.39 257.56C15.9 257.71 16.3 257.8 16.57 257.86C16.7186 257.889 16.863 257.936 17 258V258Z" fill="#263238"/>
<path d="M104.85 66.51H2.25V136.97H104.85V66.51Z" fill="#263238"/>
<path d="M59.59 127.36H45.62V153.94H59.59V127.36Z" fill="#263238"/>
<path d="M12.46 152.92V162.48H65.4V304.94H70.27V162.48L291.36 163.57V304.94H296.14V163.31L330.26 163.58V152.09L12.46 152.92Z" fill="#263238"/>
<path d="M46.34 160.62L67.21 175.65L65.4 177.39L44.35 161.54L46.34 160.62Z" fill="#263238"/>
<path d="M315.81 162.02L291.59 179.27L293.41 181.01L317.8 162.94L315.81 162.02Z" fill="#263238"/>
<path d="M144.16 149.39H89.44V153.42H144.16V149.39Z" fill="#263238"/>
</svg>
